Coordinates
version=1
nRows=19
nColumns=36
inDegrees=yes

Units are S.I. units (second, meters, Newtons, ...)
If the header above contains a line with 'inDegrees', this indicates whether rotational values are in degrees (yes) or radians (no).

endheader
time	pelvis_tilt	pelvis_list	pelvis_rotation	pelvis_tx	pelvis_ty	pelvis_tz	hip_flexion_r	hip_adduction_r	hip_rotation_r	knee_angle_r	knee_angle_r_beta	ankle_angle_r	subtalar_angle_r	mtp_angle_r	hip_flexion_l	hip_adduction_l	hip_rotation_l	knee_angle_l	knee_angle_l_beta	ankle_angle_l	subtalar_angle_l	mtp_angle_l	lumbar_extension	lumbar_bending	lumbar_rotation	arm_flex_r	arm_add_r	arm_rot_r	elbow_flex_r	pro_sup_r	arm_flex_l	arm_add_l	arm_rot_l	elbow_flex_l	pro_sup_l
      2.97916670	     -5.26572816	      2.62135971	      4.05835028	      0.50744995	      1.22158977	     -0.05455666	      0.06608769	     -6.42644663	    -17.94170218	      2.34454984	      0.04092011	    -27.06258641	     -5.24489159	     -7.49999987	      5.74857701	     -2.78310845	    -16.45102705	      6.77994124	      0.11833230	    -40.85818490	     -1.84922856	     -7.49999987	      0.43427465	     -2.23103123	      0.11175860	    -22.98561215	    -16.82380781	     24.19738024	     20.80457969	     47.97690013	    -19.84147066	    -14.53492505	      6.78350581	     20.53401305	     47.21745992
      2.98333330	     -5.54119257	      2.53020897	      4.01200100	      0.50630280	      1.23087163	     -0.05288383	      0.39447789	     -6.30392286	    -17.63689167	      2.35441414	      0.04109228	    -26.59313981	     -4.84074724	     -7.49999987	      6.04719701	     -2.81109651	    -16.23807393	      6.86980813	      0.11990077	    -40.46389395	     -1.12753779	     -7.49999987	      0.82224202	     -2.07173133	     -0.02702540	    -23.63682541	    -17.09372883	     22.60556659	     21.69624001	     48.09510521	    -20.09096020	    -14.26937511	      4.32077392	     20.58904276	     47.19962363
      2.98750000	     -5.55586763	      2.42605664	      3.95694200	      0.50659714	      1.23033953	     -0.05304639	      0.41938069	     -6.13326426	    -17.21348168	      2.34155557	      0.04086785	    -26.29922190	     -5.18254298	     -7.49999987	      6.15803406	     -2.89359652	    -15.92631957	      7.04339802	      0.12293049	    -40.10391367	     -1.08079499	     -7.49999987	      0.88568218	     -1.87574214	      0.00489410	    -23.96413638	    -17.50468040	     22.09044251	     21.84871690	     48.61470347	    -20.45958366	    -14.18854844	      2.57732661	     21.04029677	     47.90609080
      2.99166670	     -5.57098783	      2.36230571	      3.90019190	      0.50683274	      1.23850535	     -0.05376903	      0.35943159	     -6.03239214	    -17.11209847	      2.27609833	      0.03972541	    -26.03675708	     -5.26626949	     -7.49999987	      6.20574750	     -2.92021074	    -15.74060808	      7.05166424	      0.12307476	    -39.84457503	     -0.97750608	     -7.49999987	      0.97263908	     -1.69462205	      0.03313924	    -24.12685732	    -17.91047504	     22.10899971	     21.82290959	     48.56940037	    -20.52650090	    -14.24948473	      2.53988970	     21.10961748	     47.88588771
      2.99583330	     -5.58740099	      2.19399875	      3.79554205	      0.50648606	      1.24547056	     -0.05141001	      0.34258410	     -5.79323877	    -16.92608106	      2.20224155	      0.03843637	    -25.91889567	     -5.31523023	     -7.49999987	      6.23530225	     -3.11990981	    -15.57216766	      6.88381291	      0.12014520	    -39.63013092	     -0.78304724	     -7.49999987	      1.03958155	     -1.42359084	      0.04801036	    -24.24467521	    -18.28712803	     22.16733747	     21.84127810	     48.50908845	    -20.61396679	    -14.34252710	      2.50792912	     21.16570946	     47.85836148
      3.00000000	     -5.44607097	      2.09969460	      3.69554762	      0.50475415	      1.24921753	     -0.05153966	      0.21598391	     -5.59580789	    -16.78631519	      2.15986609	      0.03769677	    -26.14470816	     -5.69442038	     -7.49999987	      6.14169077	     -3.24867305	    -15.52389636	      6.73895997	      0.11761704	    -39.11912315	     -0.36178452	     -7.49999987	      0.86055231	     -1.30203569	     -0.07827384	    -24.37504753	    -18.58900327	     21.52970345	     22.49387872	     48.67077784	    -21.01954206	    -14.29757347	      1.08006623	     22.01212881	     48.35787576
      3.00416670	     -5.47561277	      2.00805829	      3.60420114	      0.50422430	      1.25505459	     -0.05141848	      0.30355912	     -5.42795236	    -16.84500488	      2.14618050	      0.03745792	    -26.22948309	     -5.77560171	     -7.49999987	      6.24588018	     -3.33989776	    -15.42244086	      6.48931820	      0.11325997	    -38.90386651	     -0.28322534	     -7.49999987	      0.99703214	     -1.11839588	     -0.10534258	    -24.39179527	    -18.84257255	     21.56667815	     22.47089407	     48.60067476	    -21.12004089	    -14.29420067	      1.10255386	     22.04869971	     48.34921393
      3.00833330	     -5.53476049	      1.94081078	      3.50089927	      0.50430329	      1.25801485	     -0.05110275	      0.41842404	     -5.29339827	    -16.93210159	      2.09908712	      0.03663598	    -26.62649249	     -6.28878504	     -7.49999987	      6.30560042	     -3.42130716	    -15.51496682	      6.14866971	      0.10731453	    -38.63480273	     -0.13921752	     -7.49999987	      1.19419790	     -1.04228882	     -0.32067435	    -24.33060435	    -19.08751496	     21.36815835	     22.37869352	     48.75246574	    -21.51868700	    -14.28906191	      0.37489689	     22.46586072	     49.22123296
      3.01250000	     -5.51549094	      1.93181446	      3.42076846	      0.50426299	      1.26280082	     -0.04996077	      0.41208408	     -5.19855925	    -17.25704239	      2.01442065	      0.03515827	    -26.97238040	     -6.53416297	     -7.49999987	      6.23108239	     -3.42180718	    -15.75994420	      5.76785493	      0.10066806	    -38.44745373	     -0.17801713	     -7.49999987	      1.31581349	     -1.04722432	     -0.48576823	    -24.10964031	    -19.53599003	     23.98947254	     22.42529474	     42.92545157	    -21.77906932	    -14.46873560	      1.44784809	     22.80175387	     47.14655683
      3.01666670	     -5.54169187	      1.99779820	      3.40064228	      0.50491447	      1.26944040	     -0.04903899	      0.42823737	     -5.15369697	    -17.73210987	      1.92043653	      0.03351794	    -27.18170365	     -6.69668958	     -7.49999987	      6.20533107	     -3.32919750	    -16.10266408	      5.37804725	      0.09386463	    -38.47886452	     -0.29341411	     -7.49999987	      1.45739620	     -1.16641514	     -0.58907211	    -24.17076582	    -19.57543691	     23.94186600	     22.42191561	     42.91763689	    -21.89581269	    -14.50420105	      1.45336783	     22.81684042	     47.15516153
      3.02083330	     -5.46342453	      2.04993716	      3.42597124	      0.50436500	      1.27200545	     -0.05000494	      0.28275408	     -5.15530445	    -18.12970648	      1.73686623	      0.03031403	    -27.65294262	     -6.88397520	     -7.49999987	      5.96753027	     -3.20693240	    -16.38170849	      4.75496849	      0.08298986	    -38.75920622	     -0.47319706	     -7.49999987	      1.38662516	     -1.21026903	     -0.86925153	    -24.29227575	    -19.70772748	     22.76030264	     22.77419759	     44.02558730	    -22.45566677	    -14.43695914	      0.77349738	     23.74460329	     48.12229361
      3.02500000	     -5.56653637	      2.08008976	      3.40693695	      0.50270722	      1.27738753	     -0.05045734	      0.38102909	     -5.17668991	    -18.63542609	      1.55807555	      0.02719355	    -27.89252937	     -7.03266492	     -7.49999987	      6.06828277	     -3.14482969	    -16.86891134	      4.20383540	      0.07337077	    -39.09454767	     -0.58968836	     -7.49999987	      1.60429235	     -1.23115094	     -0.97682611	    -24.37602879	    -19.75719626	     22.55693913	     22.66747421	     43.95034868	    -22.56914851	    -14.33153886	      0.76041938	     23.80009390	     48.11981219
      3.02916670	     -5.67332173	      2.11627557	      3.55086310	      0.50269617	      1.28107249	     -0.04785914	      0.45522822	     -5.16107552	    -18.94783925	      1.48801874	      0.02597083	    -28.29952398	     -7.38775039	     -7.49999987	      6.18966586	     -3.06079328	    -17.39205656	      3.75897481	      0.06560649	    -39.73357808	     -1.01422814	     -7.49999987	      1.76167474	     -1.39552373	     -1.24918264	    -24.45340759	    -19.34302690	     20.32916231	     22.50579184	     43.29612388	    -23.06791539	    -14.42091695	      0.32132412	     24.82915612	     48.12566640
      3.03333330	     -5.76889890	      2.11506766	      3.57443842	      0.50245104	      1.28234391	     -0.05024933	      0.57797885	     -5.20275675	    -19.38832513	      1.49258284	      0.02605048	    -28.51160108	     -7.73865341	     -7.49999987	      6.32237361	     -3.00734758	    -18.19549230	      3.42511297	      0.05977950	    -39.85440099	     -1.16492318	     -7.49999987	      1.81620705	     -1.37962432	     -1.26459817	    -25.02302419	    -19.06080016	     16.59517751	     23.20852344	     45.74292626	    -23.18000908	    -14.24588000	     -1.43861170	     25.27412545	     49.98358113
      3.03750000	     -5.80078922	      2.04096065	      3.66826169	      0.50091768	      1.28147008	     -0.05141447	      0.64244393	     -5.19197446	    -19.65518736	      1.55508445	      0.02714134	    -28.71252529	     -8.45645272	     -7.49999987	      6.45933535	     -3.03170012	    -18.59451944	      3.21878366	      0.05617837	    -39.87459559	     -1.57741447	     -7.49999987	      1.80181456	     -1.29208386	     -1.41121063	    -25.49431266	    -18.84446835	     13.11357838	     23.88294181	     48.17033972	    -23.33033739	    -14.12215963	     -1.92163551	     25.67803026	     52.00735065
      3.04166670	     -5.91118245	      2.04142090	      3.68930326	      0.50088887	      1.28706126	     -0.05077045	      0.82957162	     -5.27756885	    -20.12679842	      1.64453758	      0.02870260	    -28.77528822	     -8.74169381	     -7.49999987	      6.61145195	     -2.94584079	    -19.16119900	      3.03284035	      0.05293305	    -40.07980496	     -1.87697545	     -7.49999987	      1.91157116	     -1.32729355	     -1.65262569	    -25.49817827	    -18.93775488	     12.86966340	     24.01367229	     48.06021069	    -23.30446416	    -14.21542855	     -1.65504284	     25.92026996	     52.02775880
      3.04583330	     -5.89236441	      2.02206117	      3.70653048	      0.50126779	      1.29082280	     -0.05037913	      0.85089456	     -5.28650739	    -20.39282157	      1.67104899	      0.02916531	    -28.87110375	     -9.13394930	     -7.49999987	      6.57096887	     -2.91344529	    -19.58500219	      2.84400024	      0.04963717	    -40.17645060	     -2.29572277	     -7.49999987	      1.82641187	     -1.35928830	     -1.98598296	    -25.82063900	    -19.04117285	     11.21217408	     25.10242921	     49.10319160	    -23.95665000	    -14.15022010	     -1.76419099	     27.29204722	     52.91764777
      3.05000000	     -6.02250773	      2.06260109	      3.78407574	      0.50077258	      1.29440470	     -0.05073379	      1.02353428	     -5.37209977	    -20.51472072	      1.66237887	      0.02901398	    -28.96695086	     -9.43965065	     -7.49999987	      6.73920339	     -2.81730570	    -19.89377725	      2.78927249	      0.04868199	    -40.28967707	     -2.56493675	     -7.49999987	      1.88618122	     -1.40645299	     -2.19359934	    -26.05477423	    -18.69853466	      8.41148032	     25.35159953	     49.69685840	    -24.14745435	    -14.04710726	     -2.11516414	     27.72402373	     53.49903912
      3.05416670	     -6.24653241	      2.09762677	      3.83245417	      0.50231704	      1.29385677	     -0.05115142	      1.28158160	     -5.49206444	    -20.51009821	      1.76816330	      0.03086027	    -29.13197091	     -9.90551946	     -7.49999987	      6.98717125	     -2.69332578	    -20.28902872	      2.77056418	      0.04835547	    -40.39472353	     -3.04639729	     -7.49999987	      2.16422183	     -1.40739404	     -2.28094826	    -26.48314558	    -18.51754794	      5.99287069	     25.59955711	     50.14283101	    -24.38039176	    -14.07746665	     -2.11071012	     28.30251323	     53.99473827
